<svg width="112" height="27" viewBox="0 0 112 27" fill="none" xmlns="http://www.w3.org/2000/svg">
<path d="M21.8344 0.494787V7.91304C21.8344 8.96503 21.4795 9.98272 20.8316 10.7803L15.4006 17.4753V7.09546L21.0198 0.171757C21.3021 -0.174142 21.8371 0.0373997 21.8371 0.494787H21.8344Z" fill="white"/>
<path d="M3.89389 9.83937H0.474018V9.84222C0.0626658 9.84222 -0.15242 10.3568 0.124503 10.6798L11.8037 25.1218C11.8037 25.1218 12.7178 26.3653 14.46 26.6255V19.0157L9.05596 12.355C7.76006 10.757 5.87806 9.83937 3.89389 9.83937Z" fill="white"/>
<path d="M29.3866 9.83937H25.9667C23.9826 9.83937 22.1006 10.757 20.8047 12.355L15.4006 19.0157V26.6255C17.1428 26.3653 18.0569 25.1218 18.0569 25.1218L29.7361 10.6798C30.013 10.3568 29.798 9.84222 29.3866 9.84222V9.83937Z" fill="white"/>
<path fill-rule="evenodd" clip-rule="evenodd" d="M109.957 10.577H110.562C110.755 10.577 110.903 10.6113 111.008 10.6771C111.145 10.7857 111.215 10.9315 111.215 11.1202C111.215 11.3917 111.097 11.5718 110.863 11.6633C110.922 11.7576 111.059 11.9978 111.277 12.3865H110.836L110.465 11.7176H110.333V12.3865H109.957V10.577ZM110.333 10.9315V11.3603H110.535C110.736 11.3603 110.836 11.286 110.836 11.1402C110.836 11.0029 110.734 10.9315 110.535 10.9315H110.333Z" fill="white"/>
<path fill-rule="evenodd" clip-rule="evenodd" d="M111.57 10.3569C111.858 10.6628 112 11.0315 112 11.4661C112 11.9006 111.858 12.2693 111.57 12.5752C111.282 12.8811 110.935 13.0326 110.527 13.0326C110.118 13.0326 109.779 12.8811 109.492 12.5752C109.204 12.2693 109.061 11.9006 109.061 11.4661C109.061 11.0315 109.204 10.6656 109.489 10.3569C109.774 10.051 110.123 9.8995 110.535 9.8995C110.946 9.8995 111.282 10.051 111.57 10.3569ZM111.712 11.4661C111.712 11.1173 111.597 10.82 111.363 10.5684C111.129 10.3197 110.855 10.1939 110.535 10.1939C110.215 10.1939 109.93 10.3169 109.701 10.5656C109.473 10.8143 109.357 11.1144 109.357 11.4661C109.357 11.8177 109.47 12.1178 109.699 12.3665C109.924 12.6152 110.201 12.7382 110.529 12.7382C110.857 12.7382 111.132 12.6152 111.363 12.3665C111.597 12.1178 111.712 11.8177 111.712 11.4661Z" fill="white"/>
<path d="M8.02625 7.91304V0.494787H8.02356C8.02356 0.0373997 8.55859 -0.174142 8.84089 0.171757L14.46 7.09546V17.4753L9.02909 10.7803C8.38114 9.98272 8.02625 8.96503 8.02625 7.91304Z" fill="white"/>
<path d="M105.133 20.834L104.313 21.8145C103.818 22.4034 103.804 23.2924 104.283 23.8985C105.133 24.9791 106.402 26.66 106.402 26.66H109.628L105.135 20.834H105.133Z" fill="white"/>
<path d="M33.6849 9.84523L38.9922 26.6599H42.8557L48.1871 9.84523H44.7753L40.936 22.7693L37.0725 9.84523H33.6849Z" fill="white"/>
<path fill-rule="evenodd" clip-rule="evenodd" d="M55.4964 9.84808C57.0101 9.84808 58.2979 10.3998 59.3357 11.4804C60.3762 12.561 60.8951 13.9074 60.8951 15.4911C60.8951 17.0748 60.3762 18.4212 59.3357 19.5018C58.2952 20.5824 57.0101 21.137 55.4964 21.137H52.7191V26.6599H49.6004V9.84523H55.4964V9.84808ZM55.4964 18.0382C56.83 18.0382 57.8005 16.9347 57.8005 15.4911C57.8005 14.0475 56.83 12.944 55.4964 12.944H52.7191V18.0353H55.4964V18.0382Z" fill="white"/>
<path fill-rule="evenodd" clip-rule="evenodd" d="M72.5704 25.2906C73.5195 24.3787 73.9926 23.2009 73.9926 21.783C73.9926 20.0793 73.2909 18.7814 71.9144 17.941C72.9092 17.1005 73.4065 15.9485 73.4065 14.5792C73.4065 13.2099 72.9333 12.0807 72.0058 11.1917C71.0782 10.3026 69.949 9.84523 68.594 9.84523H62.3592V26.6599H69.0699C70.4464 26.6599 71.6213 26.2025 72.5704 25.2906ZM70.8981 21.5686C70.8981 22.7207 70.1292 23.5611 69.0672 23.5611H65.4752V19.599H69.0672C70.1292 19.599 70.8981 20.4166 70.8981 21.5686ZM65.4752 16.6431V12.944H68.594C69.5888 12.944 70.2878 13.7359 70.2878 14.7936C70.2878 15.8513 69.5646 16.6431 68.594 16.6431H65.4752Z" fill="white"/>
<path d="M97.0331 15.6338C97.8478 16.5228 98.2538 17.7235 98.2538 19.2843V26.6597H95.3393V19.6702C95.3393 18.0608 94.4575 17.1975 93.1024 17.1975C91.5888 17.1975 90.6182 18.1837 90.6182 20.1762V26.6625H87.7038V14.6533H90.6182V15.9997C91.3199 14.8705 92.4491 14.3188 93.9843 14.3188C95.2264 14.3188 96.2427 14.7505 97.0331 15.6395V15.6338Z" fill="white"/>
<path d="M102.123 23.3378V26.6599H99.2089V9.84523H102.123V19.3863L104.919 15.9405C105.591 15.1143 106.57 14.6369 107.597 14.6369H109.371L109.368 14.6341C109.581 14.6341 109.691 14.9028 109.548 15.0686L103.494 22.5583C103.494 22.5583 103.023 23.2015 102.123 23.3378Z" fill="white"/>
<path fill-rule="evenodd" clip-rule="evenodd" d="M83.8314 14.6563V16.0684C82.9496 14.8907 81.7317 14.3161 80.1481 14.3161C78.5645 14.3161 77.3466 14.9393 76.2631 16.1656C75.2011 17.392 74.658 18.8785 74.658 20.6566C74.658 22.4347 75.2011 23.9469 76.2631 25.1733C77.3466 26.3968 78.6344 27 80.1481 27C81.6618 27 82.9496 26.4226 83.8314 25.2476V26.6655H86.7459V14.6563H83.8314ZM80.667 24.1213C78.8603 24.1213 77.395 22.5633 77.395 20.6423C77.395 18.7213 78.8603 17.1605 80.667 17.1605C82.4737 17.1605 83.9417 18.7184 83.9417 20.6423C83.9417 22.5662 82.4764 24.1213 80.667 24.1213Z" fill="white"/>
</svg>
