<svg width="98" height="19" viewBox="0 0 98 19" fill="none" xmlns="http://www.w3.org/2000/svg">
<path d="M9.35626 9.49999L20.5838 0H7.48501V3.1635L0 9.49999H9.35626Z" fill="white"/>
<path d="M11.2275 9.5V12.6635L3.74249 19H13.0988L24.3263 9.5H11.2275Z" fill="white"/>
<path d="M76.6276 0L76.1012 3.77332H76.1106L81.0543 0H76.6276Z" fill="white"/>
<path d="M76.0449 4.22116L74.0336 18.7046H77.9904L80.0017 4.22116H76.0449Z" fill="white"/>
<path d="M68.0372 18.6951H72.0316L72.0222 18.676L73.3756 8.89017C73.4884 8.15647 73.5166 7.42277 73.4884 6.69859C73.4602 5.97442 73.3193 5.31695 73.0749 4.71665C72.8305 4.11635 72.417 3.64945 71.8437 3.29689C71.2704 2.94433 70.4903 2.77282 69.5222 2.77282C68.6106 2.77282 67.7365 2.90622 66.9094 3.16349C66.0729 3.42076 65.321 3.78285 64.6443 4.24022C63.9582 4.69759 63.3755 5.26931 62.8868 5.94583L63.2909 3.02056H59.6913L57.5202 18.6856H61.477L62.7458 9.55717C63.0748 8.92828 63.4789 8.36609 63.977 7.88967C64.4752 7.41324 65.0109 7.03209 65.5936 6.75576C66.1763 6.47944 66.7402 6.34604 67.2759 6.34604C68.0654 6.34604 68.6387 6.64142 68.9865 7.21314C69.3343 7.78485 69.4188 8.6996 69.2497 9.94784L68.0372 18.6951Z" fill="white"/>
<path d="M29.9446 18.333C31.1007 18.7808 32.3413 19 33.6759 19L33.6571 18.9714C35.565 18.9714 37.144 18.5426 38.394 17.666C39.644 16.7989 40.3771 15.5888 40.5933 14.0451C40.7249 13.0923 40.6027 12.3395 40.2361 11.7869C39.8696 11.2342 39.2775 10.7768 38.4786 10.4052C37.6703 10.0336 36.6741 9.68104 35.471 9.31896C34.8883 9.11886 34.3902 8.94734 33.9861 8.78536C33.5819 8.62337 33.2906 8.44233 33.112 8.22317C32.9334 8.01354 32.8676 7.71816 32.9146 7.3656C32.971 6.95587 33.1308 6.6319 33.3939 6.40321C33.6477 6.18405 33.9767 6.02207 34.3526 5.91725C34.7285 5.81244 35.1327 5.7648 35.5462 5.7648C36.2793 5.7648 36.9842 5.90773 37.6609 6.20311C38.3376 6.48897 39.0143 6.95587 39.7004 7.60381L41.7023 5.01204C40.9974 4.23069 40.1703 3.65898 39.2305 3.30642C38.2906 2.96339 37.2568 2.78235 36.1477 2.78235C34.8789 2.78235 33.7417 2.99198 32.7454 3.41124C31.7492 3.83049 30.9315 4.41174 30.3018 5.15497C29.6721 5.8982 29.2867 6.79388 29.1458 7.82297C29.0236 8.67101 29.127 9.37613 29.4465 9.91926C29.7661 10.4624 30.283 10.9293 30.9973 11.2914C31.7116 11.6535 32.6232 12.0155 33.7229 12.3776C34.3902 12.5777 34.9541 12.7492 35.424 12.9017C35.894 13.0446 36.2417 13.2257 36.4673 13.4353C36.7023 13.6449 36.7868 13.9403 36.7304 14.3405C36.6553 14.8837 36.3733 15.2839 35.8658 15.5602C35.3582 15.8365 34.7191 15.9699 33.9485 15.9699C33.0932 15.9699 32.2473 15.7889 31.4014 15.4268C30.565 15.0647 29.7379 14.5025 28.9296 13.7402L27.1063 16.3701C27.8394 17.2372 28.7886 17.8852 29.9446 18.333Z" fill="white"/>
<path fill-rule="evenodd" clip-rule="evenodd" d="M48.3847 19C47.1347 19 46.0351 18.7903 45.0764 18.3616C44.1178 17.9328 43.3377 17.342 42.7268 16.5988C42.1159 15.8555 41.6835 14.998 41.4392 14.0451C41.1948 13.0922 41.1478 12.0632 41.2982 10.9674C41.5049 9.49044 42.0219 8.13738 42.8583 6.88914C43.6948 5.64089 44.7757 4.64992 46.1009 3.90669C47.4261 3.16346 48.9392 2.79185 50.6498 2.79185C52.3603 2.79185 53.7325 3.16346 54.8416 3.91622C55.9506 4.66898 56.7495 5.64089 57.2288 6.86055C57.7175 8.08021 57.8585 9.40469 57.6612 10.834C57.6236 11.0912 57.5766 11.339 57.5296 11.5677C57.5078 11.656 57.4888 11.7386 57.471 11.8161C57.4427 11.9393 57.4174 12.0495 57.3886 12.1489H45.3584C45.302 12.9779 45.4242 13.683 45.7343 14.2547C46.0445 14.8264 46.4768 15.2838 47.0407 15.5983C47.6046 15.9127 48.2249 16.0652 48.8922 16.0652C49.7099 16.0652 50.49 15.8651 51.2513 15.4744C52.0126 15.0837 52.5671 14.5501 52.9149 13.8926L56.1762 14.855C55.7062 15.665 55.0859 16.3701 54.2964 16.999C53.5164 17.6183 52.6235 18.1138 51.6272 18.4664C50.6216 18.8189 49.5408 18.9904 48.3659 18.9904L48.3847 19ZM53.7607 9.61431C53.7889 8.82344 53.6573 8.14691 53.3754 7.56567C53.0934 6.98443 52.6705 6.53658 52.116 6.21261C51.5615 5.88864 50.9223 5.72665 50.1893 5.72665C49.4562 5.72665 48.7983 5.88864 48.1686 6.21261C47.5388 6.53658 47.0031 6.98443 46.552 7.56567C46.1009 8.14691 45.7813 8.83297 45.5933 9.61431H53.7607Z" fill="white"/>
<path fill-rule="evenodd" clip-rule="evenodd" d="M80.2648 10.8816C80.4716 9.38565 80.9603 8.02307 81.7216 6.79388C82.4923 5.56469 83.4509 4.58325 84.5976 3.8686C85.7442 3.15396 87.0036 2.79187 88.3476 2.79187C89.4755 2.79187 90.4717 3.07773 91.327 3.64945C92.1823 4.22116 92.7932 4.95486 93.1691 5.84102L93.9774 0H98L96.0357 14.1785C95.9793 14.5978 96.0075 14.9027 96.1203 15.0837C96.2331 15.2648 96.4586 15.3791 96.7876 15.4172L96.327 18.7046C95.5939 18.8475 95.0206 18.9047 94.6071 18.8857C93.8928 18.9047 93.3195 18.7332 92.9059 18.3711C92.4924 18.009 92.295 17.5326 92.3138 16.9514L92.389 15.9508C91.6747 16.9323 90.7913 17.6946 89.7386 18.2187C88.686 18.7427 87.6239 19 86.5525 19C85.481 19 84.5224 18.7999 83.6765 18.3902C82.8306 17.9804 82.1257 17.4087 81.5618 16.656C80.9979 15.9127 80.6032 15.0456 80.3776 14.0547C80.1426 13.0732 80.1144 12.006 80.2648 10.8721V10.8816ZM92.2198 12.9208L92.7274 9.25225C92.6052 8.68054 92.3608 8.166 91.9849 7.70862C91.6089 7.25125 91.1766 6.88917 90.6785 6.63189C90.1804 6.36509 89.6634 6.23169 89.1277 6.23169C88.5168 6.23169 87.9341 6.35556 87.4078 6.61284C86.872 6.87011 86.3927 7.21314 85.9698 7.65145C85.5468 8.08977 85.1991 8.58525 84.9265 9.14744C84.6634 9.70963 84.4848 10.3099 84.3908 10.9388C84.2968 11.5677 84.325 12.1966 84.466 12.7588C84.607 13.321 84.8325 13.8164 85.1521 14.2357C85.4716 14.6645 85.8852 14.9885 86.3833 15.2171C86.8908 15.4458 87.4453 15.5602 88.0657 15.5602C88.4604 15.5602 88.8551 15.4935 89.2499 15.3696C89.6446 15.2457 90.03 15.0552 90.4153 14.8169C90.7913 14.5787 91.1484 14.3024 91.468 13.988C91.7875 13.6735 92.0413 13.321 92.2105 12.9208H92.2198Z" fill="white"/>
</svg>
