<svg width="240" height="27" viewBox="0 0 240 27" fill="none" xmlns="http://www.w3.org/2000/svg">
<path d="M9.35626 17.5L20.5838 8H7.48501V11.1635L0 17.5H9.35626Z" fill="white"/>
<path d="M11.2275 17.5V20.6635L3.74249 27H13.0988L24.3263 17.5H11.2275Z" fill="white"/>
<path d="M76.6276 8L76.1012 11.7733H76.1106L81.0543 8H76.6276Z" fill="white"/>
<path d="M76.0449 12.2212L74.0336 26.7046H77.9904L80.0017 12.2212H76.0449Z" fill="white"/>
<path d="M68.0372 26.6951H72.0316L72.0222 26.676L73.3756 16.8902C73.4884 16.1565 73.5166 15.4228 73.4884 14.6986C73.4602 13.9744 73.3193 13.3169 73.0749 12.7166C72.8305 12.1163 72.417 11.6494 71.8437 11.2969C71.2704 10.9443 70.4903 10.7728 69.5222 10.7728C68.6106 10.7728 67.7365 10.9062 66.9094 11.1635C66.0729 11.4208 65.321 11.7828 64.6443 12.2402C63.9582 12.6976 63.3755 13.2693 62.8868 13.9458L63.2909 11.0206H59.6913L57.5202 26.6856H61.477L62.7458 17.5572C63.0748 16.9283 63.4789 16.3661 63.977 15.8897C64.4752 15.4132 65.0109 15.0321 65.5936 14.7558C66.1763 14.4794 66.7402 14.346 67.2759 14.346C68.0654 14.346 68.6387 14.6414 68.9865 15.2131C69.3343 15.7849 69.4188 16.6996 69.2497 17.9478L68.0372 26.6951Z" fill="white"/>
<path d="M29.9446 26.333C31.1007 26.7808 32.3413 27 33.6759 27L33.6571 26.9714C35.565 26.9714 37.144 26.5426 38.394 25.666C39.644 24.7989 40.3771 23.5888 40.5933 22.0451C40.7249 21.0923 40.6027 20.3395 40.2361 19.7869C39.8696 19.2342 39.2775 18.7768 38.4786 18.4052C37.6703 18.0336 36.6741 17.681 35.471 17.319C34.8883 17.1189 34.3902 16.9473 33.9861 16.7854C33.5819 16.6234 33.2906 16.4423 33.112 16.2232C32.9334 16.0135 32.8676 15.7182 32.9146 15.3656C32.971 14.9559 33.1308 14.6319 33.3939 14.4032C33.6477 14.1841 33.9767 14.0221 34.3526 13.9173C34.7285 13.8124 35.1327 13.7648 35.5462 13.7648C36.2793 13.7648 36.9842 13.9077 37.6609 14.2031C38.3376 14.489 39.0143 14.9559 39.7004 15.6038L41.7023 13.012C40.9974 12.2307 40.1703 11.659 39.2305 11.3064C38.2906 10.9634 37.2568 10.7823 36.1477 10.7823C34.8789 10.7823 33.7417 10.992 32.7454 11.4112C31.7492 11.8305 30.9315 12.4117 30.3018 13.155C29.6721 13.8982 29.2867 14.7939 29.1458 15.823C29.0236 16.671 29.127 17.3761 29.4465 17.9193C29.7661 18.4624 30.283 18.9293 30.9973 19.2914C31.7116 19.6535 32.6232 20.0155 33.7229 20.3776C34.3902 20.5777 34.9541 20.7492 35.424 20.9017C35.894 21.0446 36.2417 21.2257 36.4673 21.4353C36.7023 21.6449 36.7868 21.9403 36.7304 22.3405C36.6553 22.8837 36.3733 23.2839 35.8658 23.5602C35.3582 23.8365 34.7191 23.9699 33.9485 23.9699C33.0932 23.9699 32.2473 23.7889 31.4014 23.4268C30.565 23.0647 29.7379 22.5025 28.9296 21.7402L27.1063 24.3701C27.8394 25.2372 28.7886 25.8852 29.9446 26.333Z" fill="white"/>
<path fill-rule="evenodd" clip-rule="evenodd" d="M48.3847 27C47.1347 27 46.0351 26.7903 45.0764 26.3616C44.1178 25.9328 43.3377 25.342 42.7268 24.5988C42.1159 23.8555 41.6835 22.998 41.4392 22.0451C41.1948 21.0922 41.1478 20.0632 41.2982 18.9674C41.5049 17.4904 42.0219 16.1374 42.8583 14.8891C43.6948 13.6409 44.7757 12.6499 46.1009 11.9067C47.4261 11.1635 48.9392 10.7918 50.6498 10.7918C52.3603 10.7918 53.7325 11.1635 54.8416 11.9162C55.9506 12.669 56.7495 13.6409 57.2288 14.8606C57.7175 16.0802 57.8585 17.4047 57.6612 18.834C57.6236 19.0912 57.5766 19.339 57.5296 19.5677C57.5078 19.656 57.4888 19.7386 57.471 19.8161C57.4427 19.9393 57.4174 20.0495 57.3886 20.1489H45.3584C45.302 20.9779 45.4242 21.683 45.7343 22.2547C46.0445 22.8264 46.4768 23.2838 47.0407 23.5983C47.6046 23.9127 48.2249 24.0652 48.8922 24.0652C49.7099 24.0652 50.49 23.8651 51.2513 23.4744C52.0126 23.0837 52.5671 22.5501 52.9149 21.8926L56.1762 22.855C55.7062 23.665 55.0859 24.3701 54.2964 24.999C53.5164 25.6183 52.6235 26.1138 51.6272 26.4664C50.6216 26.8189 49.5408 26.9904 48.3659 26.9904L48.3847 27ZM53.7607 17.6143C53.7889 16.8234 53.6573 16.1469 53.3754 15.5657C53.0934 14.9844 52.6705 14.5366 52.116 14.2126C51.5615 13.8886 50.9223 13.7267 50.1893 13.7267C49.4562 13.7267 48.7983 13.8886 48.1686 14.2126C47.5388 14.5366 47.0031 14.9844 46.552 15.5657C46.1009 16.1469 45.7813 16.833 45.5933 17.6143H53.7607Z" fill="white"/>
<path fill-rule="evenodd" clip-rule="evenodd" d="M80.2648 18.8816C80.4716 17.3857 80.9603 16.0231 81.7216 14.7939C82.4923 13.5647 83.4509 12.5832 84.5976 11.8686C85.7442 11.154 87.0036 10.7919 88.3476 10.7919C89.4755 10.7919 90.4717 11.0777 91.327 11.6494C92.1823 12.2212 92.7932 12.9549 93.1691 13.841L93.9774 8H98L96.0357 22.1785C95.9793 22.5978 96.0075 22.9027 96.1203 23.0837C96.2331 23.2648 96.4586 23.3791 96.7876 23.4172L96.327 26.7046C95.5939 26.8475 95.0206 26.9047 94.6071 26.8857C93.8928 26.9047 93.3195 26.7332 92.9059 26.3711C92.4924 26.009 92.295 25.5326 92.3138 24.9514L92.389 23.9508C91.6747 24.9323 90.7913 25.6946 89.7386 26.2187C88.686 26.7427 87.6239 27 86.5525 27C85.481 27 84.5224 26.7999 83.6765 26.3902C82.8306 25.9804 82.1257 25.4087 81.5618 24.656C80.9979 23.9127 80.6032 23.0456 80.3776 22.0547C80.1426 21.0732 80.1144 20.006 80.2648 18.8721V18.8816ZM92.2198 20.9208L92.7274 17.2523C92.6052 16.6805 92.3608 16.166 91.9849 15.7086C91.6089 15.2513 91.1766 14.8892 90.6785 14.6319C90.1804 14.3651 89.6634 14.2317 89.1277 14.2317C88.5168 14.2317 87.9341 14.3556 87.4078 14.6128C86.872 14.8701 86.3927 15.2131 85.9698 15.6515C85.5468 16.0898 85.1991 16.5853 84.9265 17.1474C84.6634 17.7096 84.4848 18.3099 84.3908 18.9388C84.2968 19.5677 84.325 20.1966 84.466 20.7588C84.607 21.321 84.8325 21.8164 85.1521 22.2357C85.4716 22.6645 85.8852 22.9885 86.3833 23.2171C86.8908 23.4458 87.4453 23.5602 88.0657 23.5602C88.4604 23.5602 88.8551 23.4935 89.2499 23.3696C89.6446 23.2457 90.03 23.0552 90.4153 22.8169C90.7913 22.5787 91.1484 22.3024 91.468 21.988C91.7875 21.6735 92.0413 21.321 92.2105 20.9208H92.2198Z" fill="white"/>
<path d="M149.834 0.494787V7.91304C149.834 8.96503 149.48 9.98272 148.832 10.7803L143.401 17.4753V7.09546L149.02 0.171757C149.302 -0.174142 149.837 0.0373997 149.837 0.494787H149.834Z" fill="white"/>
<path d="M131.894 9.83937H128.474V9.84222C128.063 9.84222 127.848 10.3568 128.125 10.6798L139.804 25.1218C139.804 25.1218 140.718 26.3653 142.46 26.6255V19.0157L137.056 12.355C135.76 10.757 133.878 9.83937 131.894 9.83937Z" fill="white"/>
<path d="M157.387 9.83937H153.967C151.983 9.83937 150.101 10.757 148.805 12.355L143.401 19.0157V26.6255C145.143 26.3653 146.057 25.1218 146.057 25.1218L157.736 10.6798C158.013 10.3568 157.798 9.84222 157.387 9.84222V9.83937Z" fill="white"/>
<path fill-rule="evenodd" clip-rule="evenodd" d="M237.957 10.577H238.562C238.755 10.577 238.903 10.6113 239.008 10.6771C239.145 10.7857 239.215 10.9315 239.215 11.1202C239.215 11.3917 239.097 11.5718 238.863 11.6633C238.922 11.7576 239.059 11.9978 239.277 12.3865H238.836L238.465 11.7176H238.333V12.3865H237.957V10.577ZM238.333 10.9315V11.3603H238.535C238.736 11.3603 238.836 11.286 238.836 11.1402C238.836 11.0029 238.734 10.9315 238.535 10.9315H238.333Z" fill="white"/>
<path fill-rule="evenodd" clip-rule="evenodd" d="M239.57 10.3569C239.858 10.6628 240 11.0315 240 11.4661C240 11.9006 239.858 12.2693 239.57 12.5752C239.282 12.8811 238.935 13.0326 238.527 13.0326C238.118 13.0326 237.779 12.8811 237.492 12.5752C237.204 12.2693 237.061 11.9006 237.061 11.4661C237.061 11.0315 237.204 10.6656 237.489 10.3569C237.774 10.051 238.123 9.8995 238.535 9.8995C238.946 9.8995 239.282 10.051 239.57 10.3569ZM239.712 11.4661C239.712 11.1173 239.597 10.82 239.363 10.5684C239.129 10.3197 238.855 10.1939 238.535 10.1939C238.215 10.1939 237.93 10.3169 237.701 10.5656C237.473 10.8143 237.357 11.1144 237.357 11.4661C237.357 11.8177 237.47 12.1178 237.699 12.3665C237.924 12.6152 238.201 12.7382 238.529 12.7382C238.857 12.7382 239.132 12.6152 239.363 12.3665C239.597 12.1178 239.712 11.8177 239.712 11.4661Z" fill="white"/>
<path d="M136.026 7.91304V0.494787H136.024C136.024 0.0373997 136.559 -0.174142 136.841 0.171757L142.46 7.09546V17.4753L137.029 10.7803C136.381 9.98272 136.026 8.96503 136.026 7.91304Z" fill="white"/>
<path d="M233.133 20.834L232.313 21.8145C231.818 22.4034 231.804 23.2924 232.283 23.8985C233.133 24.9791 234.402 26.66 234.402 26.66H237.628L233.135 20.834H233.133Z" fill="white"/>
<path d="M161.685 9.84523L166.992 26.6599H170.856L176.187 9.84523H172.775L168.936 22.7693L165.073 9.84523H161.685Z" fill="white"/>
<path fill-rule="evenodd" clip-rule="evenodd" d="M183.496 9.84808C185.01 9.84808 186.298 10.3998 187.336 11.4804C188.376 12.561 188.895 13.9074 188.895 15.4911C188.895 17.0748 188.376 18.4212 187.336 19.5018C186.295 20.5824 185.01 21.137 183.496 21.137H180.719V26.6599H177.6V9.84523H183.496V9.84808ZM183.496 18.0382C184.83 18.0382 185.801 16.9347 185.801 15.4911C185.801 14.0475 184.83 12.944 183.496 12.944H180.719V18.0353H183.496V18.0382Z" fill="white"/>
<path fill-rule="evenodd" clip-rule="evenodd" d="M200.57 25.2906C201.519 24.3787 201.993 23.2009 201.993 21.783C201.993 20.0793 201.291 18.7814 199.914 17.941C200.909 17.1005 201.407 15.9485 201.407 14.5792C201.407 13.2099 200.933 12.0807 200.006 11.1917C199.078 10.3026 197.949 9.84523 196.594 9.84523H190.359V26.6599H197.07C198.446 26.6599 199.621 26.2025 200.57 25.2906ZM198.898 21.5686C198.898 22.7207 198.129 23.5611 197.067 23.5611H193.475V19.599H197.067C198.129 19.599 198.898 20.4166 198.898 21.5686ZM193.475 16.6431V12.944H196.594C197.589 12.944 198.288 13.7359 198.288 14.7936C198.288 15.8513 197.565 16.6431 196.594 16.6431H193.475Z" fill="white"/>
<path d="M225.033 15.6338C225.848 16.5228 226.254 17.7235 226.254 19.2843V26.6597H223.339V19.6702C223.339 18.0608 222.457 17.1975 221.102 17.1975C219.589 17.1975 218.618 18.1837 218.618 20.1762V26.6625H215.704V14.6533H218.618V15.9997C219.32 14.8705 220.449 14.3188 221.984 14.3188C223.226 14.3188 224.243 14.7505 225.033 15.6395V15.6338Z" fill="white"/>
<path d="M230.123 23.3378V26.6599H227.209V9.84523H230.123V19.3863L232.919 15.9405C233.591 15.1143 234.57 14.6369 235.597 14.6369H237.371L237.368 14.6341C237.581 14.6341 237.691 14.9028 237.548 15.0686L231.494 22.5583C231.494 22.5583 231.023 23.2015 230.123 23.3378Z" fill="white"/>
<path fill-rule="evenodd" clip-rule="evenodd" d="M211.831 14.6563V16.0684C210.95 14.8907 209.732 14.3161 208.148 14.3161C206.565 14.3161 205.347 14.9393 204.263 16.1656C203.201 17.392 202.658 18.8785 202.658 20.6566C202.658 22.4347 203.201 23.9469 204.263 25.1733C205.347 26.3968 206.634 27 208.148 27C209.662 27 210.95 26.4226 211.831 25.2476V26.6655H214.746V14.6563H211.831ZM208.667 24.1213C206.86 24.1213 205.395 22.5633 205.395 20.6423C205.395 18.7213 206.86 17.1605 208.667 17.1605C210.474 17.1605 211.942 18.7184 211.942 20.6423C211.942 22.5662 210.476 24.1213 208.667 24.1213Z" fill="white"/>
<path d="M111.142 20.8579C110.953 20.6685 110.953 20.3615 111.142 20.1721L116.172 15.1423C116.361 14.9529 116.668 14.9529 116.858 15.1423C117.047 15.3317 117.047 15.6388 116.858 15.8282L111.828 20.8579C111.639 21.0473 111.331 21.0474 111.142 20.8579Z" fill="white"/>
<path d="M116.858 20.8577C116.669 21.0471 116.361 21.0471 116.172 20.8577L111.142 15.8279C110.953 15.6385 110.953 15.3315 111.142 15.1421C111.332 14.9526 111.639 14.9526 111.828 15.1421L116.858 20.1718C117.047 20.3612 117.047 20.6683 116.858 20.8577Z" fill="white"/>
</svg>
