<svg width="6" height="6" viewBox="0 0 6 6" fill="none" xmlns="http://www.w3.org/2000/svg">
<path d="M0.142051 5.85795C-0.0473504 5.66855 -0.0473503 5.36147 0.142051 5.17207L5.17186 0.142286C5.36126 -0.0471142 5.66834 -0.0471145 5.85775 0.142286C6.04715 0.331686 6.04715 0.638765 5.85775 0.828166L0.827935 5.85795C0.638533 6.04735 0.331453 6.04735 0.142051 5.85795Z" fill="white"/>
<path d="M5.85795 5.85771C5.66855 6.04711 5.36147 6.04711 5.17207 5.85771L0.142255 0.82793C-0.047147 0.63853 -0.0471473 0.331451 0.142254 0.14205C0.331656 -0.0473502 0.638736 -0.0473501 0.828138 0.14205L5.85795 5.17183C6.04735 5.36123 6.04735 5.66831 5.85795 5.85771Z" fill="white"/>
</svg>
