<svg width="76" height="76" viewBox="0 0 76 76" fill="none" xmlns="http://www.w3.org/2000/svg">
<path d="M0 38C0 17.0132 17.0132 0 38 0C58.9868 0 76 17.0132 76 38C76 58.9868 58.9868 76 38 76C17.0132 76 0 58.9868 0 38Z" fill="white" fill-opacity="0.2"/>
<path d="M38.2837 21.0001C36.065 20.9945 33.8673 21.4347 31.8177 22.2954C29.7681 23.1561 27.9073 24.4201 26.343 26.0143C25.0649 27.3253 23.9292 28.5864 22.8129 29.9063V26.7C22.8129 26.3221 22.6647 25.9597 22.4009 25.6924C22.1372 25.4252 21.7795 25.275 21.4064 25.275C21.0334 25.275 20.6757 25.4252 20.4119 25.6924C20.1482 25.9597 20 26.3221 20 26.7V33.825C20 34.203 20.1482 34.5654 20.4119 34.8327C20.6757 35.0999 21.0334 35.25 21.4064 35.25H28.4386C28.8116 35.25 29.1694 35.0999 29.4331 34.8327C29.6969 34.5654 29.8451 34.203 29.8451 33.825C29.8451 33.4471 29.6969 33.0846 29.4331 32.8174C29.1694 32.5502 28.8116 32.4 28.4386 32.4H24.3951C25.6521 30.9002 26.9039 29.4877 28.3314 28.0235C30.2861 26.043 32.7735 24.6901 35.4827 24.1338C38.192 23.5774 41.003 23.8423 43.5645 24.8954C46.126 25.9485 48.3244 27.7431 49.8851 30.0549C51.4457 32.3666 52.2993 35.0931 52.3393 37.8937C52.3793 40.6942 51.6039 43.4446 50.1099 45.8011C48.6159 48.1577 46.4696 50.0159 43.9393 51.1436C41.4089 52.2714 38.6066 52.6186 35.8826 52.1419C33.1586 51.6652 30.6336 50.3857 28.6232 48.4633C28.4889 48.3347 28.3308 48.2341 28.1581 48.1673C27.9853 48.1006 27.8013 48.0689 27.6165 48.0742C27.4317 48.0795 27.2498 48.1216 27.081 48.1982C26.9123 48.2747 26.7601 48.3842 26.6331 48.5203C26.5061 48.6565 26.4069 48.8166 26.341 48.9916C26.2751 49.1666 26.2439 49.3531 26.2491 49.5403C26.2543 49.7276 26.2959 49.9119 26.3714 50.0829C26.447 50.2538 26.555 50.408 26.6894 50.5367C28.6926 52.452 31.128 53.8415 33.7831 54.5839C36.4382 55.3262 39.2323 55.3989 41.9215 54.7956C44.6107 54.1923 47.1133 52.9313 49.2109 51.1226C51.3085 49.314 52.9373 47.0127 53.9552 44.4196C54.9731 41.8264 55.3491 39.0203 55.0505 36.2461C54.7519 33.4718 53.7877 30.8138 52.242 28.504C50.6964 26.1941 48.6162 24.3027 46.1832 22.9947C43.7501 21.6867 41.0381 21.0019 38.2837 21.0001Z" fill="white" stroke="white" stroke-width="0.6"/>
<path d="M42.7761 42.8261C43.3997 42.2026 43.75 41.3568 43.75 40.475C43.75 39.5932 43.3997 38.7474 42.7761 38.1239C42.1526 37.5003 41.3068 37.15 40.425 37.15H37.575C37.1971 37.15 36.8346 36.9999 36.5674 36.7326C36.3001 36.4654 36.15 36.1029 36.15 35.725C36.15 35.3471 36.3001 34.9846 36.5674 34.7174C36.8346 34.4501 37.1971 34.3 37.575 34.3H41.85C42.102 34.3 42.3436 34.1999 42.5218 34.0218C42.6999 33.8436 42.8 33.602 42.8 33.35C42.8 33.098 42.6999 32.8564 42.5218 32.6782C42.3436 32.5001 42.102 32.4 41.85 32.4H39.95V31.45C39.95 31.198 39.8499 30.9564 39.6718 30.7782C39.4936 30.6001 39.252 30.5 39 30.5C38.748 30.5 38.5064 30.6001 38.3282 30.7782C38.1501 30.9564 38.05 31.198 38.05 31.45V32.4H37.575C36.6932 32.4 35.8474 32.7503 35.2239 33.3739C34.6003 33.9974 34.25 34.8432 34.25 35.725C34.25 36.6068 34.6003 37.4526 35.2239 38.0761C35.8474 38.6997 36.6932 39.05 37.575 39.05H40.425C40.8029 39.05 41.1654 39.2001 41.4326 39.4674C41.6999 39.7346 41.85 40.0971 41.85 40.475C41.85 40.8529 41.6999 41.2154 41.4326 41.4826C41.1654 41.7499 40.8029 41.9 40.425 41.9H36.15C35.898 41.9 35.6564 42.0001 35.4782 42.1782C35.3001 42.3564 35.2 42.598 35.2 42.85C35.2 43.102 35.3001 43.3436 35.4782 43.5218C35.6564 43.6999 35.898 43.8 36.15 43.8H38.05V44.75C38.05 45.002 38.1501 45.2436 38.3282 45.4218C38.5064 45.5999 38.748 45.7 39 45.7C39.252 45.7 39.4936 45.5999 39.6718 45.4218C39.8499 45.2436 39.95 45.002 39.95 44.75V43.8H40.425C41.3068 43.8 42.1526 43.4497 42.7761 42.8261Z" fill="white"/>
</svg>
