<svg width="76" height="76" viewBox="0 0 76 76" fill="none" xmlns="http://www.w3.org/2000/svg">
<path d="M0 38C0 17.0132 17.0132 0 38 0C58.9868 0 76 17.0132 76 38C76 58.9868 58.9868 76 38 76C17.0132 76 0 58.9868 0 38Z" fill="white" fill-opacity="0.2"/>
<path d="M52.7094 27.1984C52.592 27.058 52.4453 26.9451 52.2795 26.8676C52.1137 26.7901 51.933 26.75 51.75 26.75H26.5437L25.7797 22.5531C25.675 21.9771 25.3715 21.456 24.9221 21.0808C24.4726 20.7056 23.9058 20.5001 23.3203 20.5H20.5C20.1685 20.5 19.8505 20.6317 19.6161 20.8661C19.3817 21.1005 19.25 21.4185 19.25 21.75C19.25 22.0815 19.3817 22.3995 19.6161 22.6339C19.8505 22.8683 20.1685 23 20.5 23H23.3125L27.3062 44.9203C27.4239 45.5704 27.7112 46.1779 28.1391 46.6812C27.5485 47.2328 27.1223 47.9372 26.9076 48.7163C26.6929 49.4953 26.6982 50.3186 26.9229 51.0948C27.1475 51.871 27.5828 52.5699 28.1804 53.1139C28.7779 53.6578 29.5145 54.0256 30.3084 54.1766C31.1022 54.3275 31.9224 54.2555 32.6779 53.9688C33.4334 53.682 34.0947 53.1916 34.5885 52.552C35.0823 51.9123 35.3893 51.1484 35.4755 50.3449C35.5616 49.5414 35.4235 48.7298 35.0766 48H42.1734C41.8938 48.5854 41.7491 49.2262 41.75 49.875C41.75 50.7403 42.0066 51.5862 42.4873 52.3056C42.9681 53.0251 43.6513 53.5858 44.4508 53.917C45.2502 54.2481 46.1298 54.3347 46.9785 54.1659C47.8272 53.9971 48.6067 53.5804 49.2186 52.9686C49.8304 52.3567 50.2471 51.5772 50.4159 50.7285C50.5847 49.8799 50.4981 49.0002 50.167 48.2008C49.8358 47.4013 49.2751 46.7181 48.5556 46.2373C47.8362 45.7566 46.9903 45.5 46.125 45.5H30.9953C30.7026 45.5 30.4191 45.3972 30.1944 45.2096C29.9697 45.022 29.818 44.7615 29.7656 44.4734L29.2703 41.75H47.3953C48.2735 41.7499 49.1238 41.4415 49.798 40.8787C50.4721 40.3159 50.9274 39.5344 51.0844 38.6703L52.9844 28.2234C53.0165 28.0429 53.0086 27.8574 52.961 27.6803C52.9135 27.5032 52.8276 27.3387 52.7094 27.1984ZM33 49.875C33 50.2458 32.89 50.6084 32.684 50.9167C32.478 51.225 32.1851 51.4654 31.8425 51.6073C31.4999 51.7492 31.1229 51.7863 30.7592 51.714C30.3955 51.6416 30.0614 51.463 29.7992 51.2008C29.537 50.9386 29.3584 50.6045 29.286 50.2408C29.2137 49.8771 29.2508 49.5001 29.3927 49.1575C29.5346 48.8149 29.775 48.522 30.0833 48.316C30.3916 48.11 30.7542 48 31.125 48C31.6223 48 32.0992 48.1975 32.4508 48.5492C32.8025 48.9008 33 49.3777 33 49.875ZM48 49.875C48 50.2458 47.89 50.6084 47.684 50.9167C47.478 51.225 47.1851 51.4654 46.8425 51.6073C46.4999 51.7492 46.1229 51.7863 45.7592 51.714C45.3955 51.6416 45.0614 51.463 44.7992 51.2008C44.5369 50.9386 44.3584 50.6045 44.286 50.2408C44.2137 49.8771 44.2508 49.5001 44.3927 49.1575C44.5346 48.8149 44.775 48.522 45.0833 48.316C45.3916 48.11 45.7542 48 46.125 48C46.6223 48 47.0992 48.1975 47.4508 48.5492C47.8025 48.9008 48 49.3777 48 49.875ZM48.625 38.2234C48.5725 38.5122 48.4201 38.7734 48.1944 38.9611C47.9687 39.1488 47.6842 39.2511 47.3906 39.25H28.8156L26.9984 29.25H50.2516L48.625 38.2234Z" fill="white"/>
</svg>
