<svg width="76" height="76" viewBox="0 0 76 76" fill="none" xmlns="http://www.w3.org/2000/svg">
<path d="M0 38C0 17.0132 17.0132 0 38 0C58.9868 0 76 17.0132 76 38C76 58.9868 58.9868 76 38 76C17.0132 76 0 58.9868 0 38Z" fill="white" fill-opacity="0.2"/>
<path d="M53.2308 30.0818H47.1592C47.2267 30.0224 47.296 29.9648 47.3617 29.9018C47.8874 29.4162 48.311 28.823 48.6061 28.1593C48.9013 27.4956 49.0615 26.7757 49.0769 26.0447C49.0997 25.245 48.965 24.4488 48.6811 23.7052C48.3973 22.9615 47.9703 22.2861 47.4264 21.7203C46.8824 21.1544 46.233 20.7102 45.518 20.4148C44.803 20.1194 44.0375 19.9791 43.2685 20.0025C42.5652 20.0183 41.8726 20.1848 41.2341 20.4917C40.5956 20.7986 40.0249 21.2393 39.5577 21.7862C38.9112 22.5653 38.3857 23.4447 38 24.3924C37.6143 23.4447 37.0888 22.5653 36.4423 21.7862C35.9751 21.2393 35.4044 20.7986 34.7659 20.4917C34.1274 20.1848 33.4348 20.0183 32.7315 20.0025C31.9625 19.9791 31.197 20.1194 30.482 20.4148C29.767 20.7102 29.1176 21.1544 28.5736 21.7203C28.0297 22.2861 27.6027 22.9615 27.3189 23.7052C27.035 24.4488 26.9003 25.245 26.9231 26.0447C26.9385 26.7757 27.0987 27.4956 27.3939 28.1593C27.689 28.823 28.1126 29.4162 28.6383 29.9018C28.704 29.9612 28.7733 30.0188 28.8408 30.0818H22.7692C22.0348 30.0818 21.3304 30.3852 20.8111 30.9253C20.2918 31.4654 20 32.1978 20 32.9616V38.7212C20 39.485 20.2918 40.2175 20.8111 40.7575C21.3304 41.2976 22.0348 41.601 22.7692 41.601V53.1202C22.7692 53.884 23.061 54.6165 23.5803 55.1565C24.0997 55.6966 24.804 56 25.5385 56H50.4615C51.196 56 51.9003 55.6966 52.4197 55.1565C52.939 54.6165 53.2308 53.884 53.2308 53.1202V41.601C53.9652 41.601 54.6696 41.2976 55.1889 40.7575C55.7082 40.2175 56 39.485 56 38.7212V32.9616C56 32.1978 55.7082 31.4654 55.1889 30.9253C54.6696 30.3852 53.9652 30.0818 53.2308 30.0818ZM41.6346 23.6941C41.8538 23.4423 42.1208 23.2404 42.4186 23.101C42.7165 22.9616 43.0388 22.8878 43.3654 22.8841H43.4502C43.833 22.8866 44.2114 22.9685 44.5634 23.1251C44.9154 23.2816 45.2337 23.5096 45.4999 23.7958C45.766 24.0819 45.9745 24.4204 46.1132 24.7914C46.252 25.1625 46.3181 25.5586 46.3077 25.9565C46.3042 26.2961 46.2332 26.6313 46.0991 26.9411C45.9651 27.2508 45.7709 27.5284 45.5288 27.7564C43.8863 29.2683 41.1604 29.801 39.4712 29.9882C39.6788 28.0821 40.25 25.3121 41.6346 23.6941ZM30.5421 23.7589C31.0786 23.2011 31.8051 22.886 32.5637 22.8823H32.6485C32.9751 22.886 33.2974 22.9598 33.5952 23.0992C33.8931 23.2386 34.16 23.4405 34.3792 23.6923C35.8313 25.3985 36.3437 28.2279 36.5237 29.9774C34.8413 29.7974 32.1206 29.2575 30.4798 27.7474C30.2377 27.5194 30.0435 27.2418 29.9095 26.9321C29.7755 26.6223 29.7045 26.2871 29.701 25.9475C29.6902 25.5429 29.7586 25.1403 29.902 24.7641C30.0454 24.3879 30.2609 24.0459 30.5352 23.7589H30.5421ZM22.7692 32.9616H36.6154V38.7212H22.7692V32.9616ZM25.5385 41.601H36.6154V53.1202H25.5385V41.601ZM50.4615 53.1202H39.3846V41.601H50.4615V53.1202ZM53.2308 38.7212H39.3846V32.9616H53.2308V38.7212Z" fill="white"/>
</svg>
