<svg width="76" height="76" viewBox="0 0 76 76" fill="none" xmlns="http://www.w3.org/2000/svg">
<path d="M0 38C0 17.0132 17.0132 0 38 0C58.9868 0 76 17.0132 76 38C76 58.9868 58.9868 76 38 76C17.0132 76 0 58.9868 0 38Z" fill="#00B74F" fill-opacity="0.08"/>
<path d="M53.4984 34.325C54.0631 34.2101 54.5708 33.9036 54.9356 33.4575C55.3003 33.0113 55.4997 32.4528 55.5 31.8766V28C55.5 27.337 55.2366 26.7011 54.7678 26.2322C54.2989 25.7634 53.663 25.5 53 25.5H23C22.337 25.5 21.7011 25.7634 21.2322 26.2322C20.7634 26.7011 20.5 27.337 20.5 28V31.8766C20.5003 32.4528 20.6997 33.0113 21.0645 33.4575C21.4292 33.9036 21.9369 34.2101 22.5016 34.325C23.346 34.5001 24.1042 34.9609 24.6485 35.6297C25.1929 36.2985 25.4901 37.1345 25.4901 37.9969C25.4901 38.8592 25.1929 39.6952 24.6485 40.364C24.1042 41.0329 23.346 41.4936 22.5016 41.6687C21.9358 41.7839 21.4273 42.0912 21.0625 42.5387C20.6976 42.9861 20.4989 43.5461 20.5 44.1234V48C20.5 48.663 20.7634 49.2989 21.2322 49.7678C21.7011 50.2366 22.337 50.5 23 50.5H53C53.663 50.5 54.2989 50.2366 54.7678 49.7678C55.2366 49.2989 55.5 48.663 55.5 48V44.1234C55.4997 43.5472 55.3003 42.9887 54.9356 42.5425C54.5708 42.0964 54.0631 41.7899 53.4984 41.675C52.6541 41.4999 51.8958 41.0391 51.3515 40.3703C50.8071 39.7015 50.5099 38.8655 50.5099 38.0031C50.5099 37.1408 50.8071 36.3048 51.3515 35.636C51.8958 34.9671 52.6541 34.5064 53.4984 34.3312V34.325ZM23 44.125C24.412 43.8374 25.6813 43.0706 26.5929 41.9546C27.5045 40.8386 28.0024 39.4418 28.0024 38.0008C28.0024 36.5598 27.5045 35.163 26.5929 34.047C25.6813 32.9309 24.412 32.1642 23 31.8766V28H31.75V48H23V44.125ZM53 44.125V48H34.25V28H53V31.875C51.588 32.1626 50.3187 32.9294 49.4071 34.0454C48.4955 35.1614 47.9976 36.5582 47.9976 37.9992C47.9976 39.4402 48.4955 40.837 49.4071 41.953C50.3187 43.0691 51.588 43.8358 53 44.1234V44.125Z" fill="#00B74F"/>
</svg>
