<svg width="76" height="76" viewBox="0 0 76 76" fill="none" xmlns="http://www.w3.org/2000/svg">
<path d="M0 38C0 17.0132 17.0132 0 38 0C58.9868 0 76 17.0132 76 38C76 58.9868 58.9868 76 38 76C17.0132 76 0 58.9868 0 38Z" fill="#00B74F" fill-opacity="0.08"/>
<path d="M46.4849 27.3928L16.0734 34.7654C15.4012 34.9284 14.8199 35.3361 14.4573 35.8989C14.0947 36.4618 13.9805 37.1336 14.1398 37.7666L18.9461 56.8609C19.1054 57.494 19.5252 58.0363 20.1132 58.3687C20.7011 58.7011 21.409 58.7963 22.0812 58.6333L52.4927 51.2607C53.1648 51.0977 53.7461 50.69 54.1087 50.1272C54.4714 49.5643 54.5855 48.8925 54.4262 48.2595L49.62 29.1652C49.4606 28.5321 49.0408 27.9898 48.4529 27.6574C47.8649 27.325 47.157 27.2298 46.4849 27.3928ZM47.0857 29.7795L47.9868 33.3597L17.5753 40.7324L16.6741 37.1522L47.0857 29.7795ZM51.8919 48.8739L21.4804 56.2465L18.1761 43.1192L48.5876 35.7465L51.8919 48.8739Z" fill="#00B74F"/>
<path d="M28.7787 51.5739C28.96 51.2925 29.0171 50.9566 28.9374 50.6401C28.8578 50.3236 28.6479 50.0524 28.3539 49.8862C28.0599 49.72 27.706 49.6724 27.3699 49.7539L24.8356 50.3683C24.4995 50.4497 24.2089 50.6536 24.0276 50.935C23.8463 51.2164 23.7892 51.5523 23.8688 51.8689C23.9485 52.1854 24.1584 52.4565 24.4524 52.6227C24.7464 52.7889 25.1003 52.8365 25.4364 52.7551L27.9707 52.1407C28.3067 52.0592 28.5974 51.8553 28.7787 51.5739Z" fill="#00B74F"/>
<path d="M54 16L55.3152 20.6848L60 22L55.3152 23.3152L54 28L52.6848 23.3152L48 22L52.6848 20.6848L54 16Z" fill="#00B74F"/>
<path d="M59 27L59.8103 29.5547L62 30.5L59.8103 31.4453L59 34L58.1897 31.4453L56 30.5L58.1897 29.5547L59 27Z" fill="#00B74F"/>
</svg>
