<svg width="32" height="32" viewBox="0 0 32 32" fill="none" xmlns="http://www.w3.org/2000/svg">
<path d="M0 16C0 7.16344 7.16344 0 16 0C24.8366 0 32 7.16344 32 16C32 24.8366 24.8366 32 16 32C7.16344 32 0 24.8366 0 16Z" fill="#171717"/>
<path d="M20.4204 11.5806C20.561 11.7212 20.64 11.912 20.64 12.1109C20.64 12.3098 20.561 12.5006 20.4204 12.6412L17.0616 16L20.4204 19.3588C20.561 19.4994 20.64 19.6902 20.64 19.8891C20.64 20.088 20.561 20.2788 20.4204 20.4194C20.2797 20.5601 20.0889 20.6391 19.89 20.6391C19.6911 20.6391 19.5004 20.5601 19.3597 20.4194L16.0009 17.0607L12.6422 20.4194C12.5015 20.5601 12.3108 20.6391 12.1119 20.6391C11.9129 20.6391 11.7222 20.5601 11.5815 20.4194C11.4409 20.2788 11.3619 20.088 11.3619 19.8891C11.3619 19.6902 11.4409 19.4994 11.5815 19.3588L14.9403 16L11.5815 12.6412C11.4409 12.5006 11.3619 12.3098 11.3619 12.1109C11.3619 11.912 11.4409 11.7212 11.5815 11.5806C11.7222 11.4399 11.9129 11.3609 12.1119 11.3609C12.3108 11.3609 12.5015 11.4399 12.6422 11.5806L16.0009 14.9393L19.3597 11.5806C19.5004 11.4399 19.6911 11.3609 19.89 11.3609C20.0889 11.3609 20.2797 11.4399 20.4204 11.5806Z" fill="white"/>
</svg>
