<svg width="76" height="76" viewBox="0 0 76 76" fill="none" xmlns="http://www.w3.org/2000/svg">
<rect width="76" height="76" fill="#808080"/>
<g id="Jarvis 2">
<path d="M-150 -3226C-150 -3227.1 -149.105 -3228 -148 -3228H5661C5662.1 -3228 5663 -3227.1 5663 -3226V2210C5663 2211.1 5662.1 2212 5661 2212H-148C-149.105 2212 -150 2211.1 -150 2210V-3226Z" fill="#999999"/>
<g id="Landing page" clip-path="url(#clip0_0_1)">
<rect width="375" height="5240" transform="translate(-50 -3128)" fill="#F8F8F8"/>
<g id="Block">
<g id="Block 06" filter="url(#filter0_d_0_1)">
<g clip-path="url(#clip1_0_1)">
<rect x="-30" y="-30" width="335" height="580" rx="24" fill="url(#paint0_linear_0_1)"/>
<g id="Circle-Icon">
<path d="M0 38C0 17.0132 17.0132 0 38 0C58.9868 0 76 17.0132 76 38C76 58.9868 58.9868 76 38 76C17.0132 76 0 58.9868 0 38Z" fill="white" fill-opacity="0.2"/>
<path id="Vector" d="M53.2308 23H22.7692C22.0348 23 21.3304 23.2873 20.8111 23.7988C20.2918 24.3103 20 25.004 20 25.7273V51.6371C20.0001 51.8695 20.0606 52.098 20.1756 52.301C20.2906 52.5039 20.4564 52.6745 20.6572 52.7966C20.858 52.9188 21.0871 52.9883 21.3229 52.9986C21.5587 53.009 21.7932 52.9598 22.0042 52.8558L26.9231 50.4336L31.8419 52.8558C32.0343 52.9506 32.2464 53 32.4615 53C32.6766 53 32.8888 52.9506 33.0812 52.8558L38 50.4336L42.9188 52.8558C43.1112 52.9506 43.3234 53 43.5385 53C43.7536 53 43.9657 52.9506 44.1581 52.8558L49.0769 50.4336L53.9958 52.8558C54.2068 52.9598 54.4413 53.009 54.6771 52.9986C54.9129 52.9883 55.142 52.9188 55.3428 52.7966C55.5436 52.6745 55.7094 52.5039 55.8244 52.301C55.9394 52.098 55.9999 51.8695 56 51.6371V25.7273C56 25.004 55.7082 24.3103 55.1889 23.7988C54.6696 23.2873 53.9652 23 53.2308 23ZM53.2308 49.4313L49.6965 47.6892C49.5042 47.5944 49.292 47.5451 49.0769 47.5451C48.8618 47.5451 48.6497 47.5944 48.4573 47.6892L43.5385 50.1132L38.6196 47.6892C38.4273 47.5944 38.2151 47.5451 38 47.5451C37.7849 47.5451 37.5728 47.5944 37.3804 47.6892L32.4615 50.1132L27.5427 47.6892C27.3503 47.5944 27.1382 47.5451 26.9231 47.5451C26.708 47.5451 26.4958 47.5944 26.3035 47.6892L22.7692 49.4313V25.7273H53.2308V49.4313Z" fill="white"/>
<path id="Vector_2" d="M44.0541 33.6483C44.0541 34.3931 43.8068 35.0221 43.3277 35.5352C42.8485 36.0483 42.2612 36.2966 41.5348 36.2966C40.8083 36.2966 40.2056 36.0483 39.7264 35.5352C39.2473 35.0221 39 34.3931 39 33.6483C39 32.9034 39.2473 32.291 39.7264 31.7779C40.2056 31.2648 40.8083 31 41.5348 31C42.2612 31 42.8485 31.2483 43.3277 31.7614C43.8068 32.2745 44.0541 32.9034 44.0541 33.6483ZM41.5193 34.84C42.1839 34.84 42.6321 34.3103 42.6321 33.6483C42.6321 32.9697 42.1839 32.44 41.5193 32.44C40.8856 32.44 40.4219 32.9697 40.4219 33.6483C40.4219 34.3103 40.8856 34.84 41.5193 34.84ZM40.7465 41.6262L39.9119 41.0966L47.0371 32.6055L47.8717 33.1186L40.7465 41.6262ZM46.4807 43C45.7543 43 45.1515 42.7517 44.6723 42.2386C44.1932 41.7255 43.9459 41.0966 43.9459 40.3517C43.9459 39.6069 44.1932 38.9945 44.6723 38.4814C45.1515 37.9683 45.7543 37.7034 46.4807 37.7034C47.1917 37.7034 47.7944 37.9683 48.2736 38.4814C48.7527 38.9945 49 39.6069 49 40.3517C49 41.0966 48.7527 41.7255 48.2736 42.2386C47.7944 42.7517 47.1917 43 46.4807 43ZM46.4652 41.5434C47.1298 41.5434 47.5781 41.0138 47.5781 40.3517C47.5781 39.6731 47.1298 39.1434 46.4652 39.1434C45.8315 39.1434 45.3679 39.6731 45.3679 40.3517C45.3679 41.0138 45.8315 41.5434 46.4652 41.5434Z" fill="white"/>
<path id="Vector_3" d="M36.54 42.0909C35.58 43.3636 34.24 44 32.5 44C30.76 44 29.42 43.3636 28.44 42.0909C27.48 40.8182 27 39.1212 27 37C27 34.8788 27.48 33.1818 28.44 31.9091C29.42 30.6364 30.76 30 32.5 30C34.24 30 35.58 30.6364 36.54 31.9091C37.52 33.1818 38 34.8788 38 37C38 39.1212 37.52 40.8182 36.54 42.0909ZM32.5 41.8402C34.58 41.8402 35.7 40.1047 35.7 37C35.7 33.8953 34.58 32.1598 32.5 32.1598C30.44 32.1598 29.3 33.8953 29.3 37C29.3 40.1047 30.44 41.8402 32.5 41.8402Z" fill="white"/>
</g>
</g>
</g>
</g>
</g>
</g>
<defs>
<filter id="filter0_d_0_1" x="-70" y="-66" width="415" height="660" filterUnits="userSpaceOnUse" color-interpolation-filters="sRGB">
<feFlood flood-opacity="0" result="BackgroundImageFix"/>
<feColorMatrix in="SourceAlpha" type="matrix" values="0 0 0 0 0 0 0 0 0 0 0 0 0 0 0 0 0 0 127 0" result="hardAlpha"/>
<feOffset dy="4"/>
<feGaussianBlur stdDeviation="20"/>
<feComposite in2="hardAlpha" operator="out"/>
<feColorMatrix type="matrix" values="0 0 0 0 0 0 0 0 0 0 0 0 0 0 0 0 0 0 0.04 0"/>
<feBlend mode="normal" in2="BackgroundImageFix" result="effect1_dropShadow_0_1"/>
<feBlend mode="normal" in="SourceGraphic" in2="effect1_dropShadow_0_1" result="shape"/>
</filter>
<linearGradient id="paint0_linear_0_1" x1="294" y1="-11.875" x2="-170.169" y2="377.9" gradientUnits="userSpaceOnUse">
<stop stop-color="#00B74F"/>
<stop offset="0.43463" stop-color="#24B683"/>
<stop offset="1" stop-color="#164CB4"/>
</linearGradient>
<clipPath id="clip0_0_1">
<rect width="375" height="5240" fill="white" transform="translate(-50 -3128)"/>
</clipPath>
<clipPath id="clip1_0_1">
<rect x="-30" y="-30" width="335" height="580" rx="24" fill="white"/>
</clipPath>
</defs>
</svg>
