<svg width="76" height="76" viewBox="0 0 76 76" fill="none" xmlns="http://www.w3.org/2000/svg">
<path d="M0 38C0 17.0132 17.0132 0 38 0C58.9868 0 76 17.0132 76 38C76 58.9868 58.9868 76 38 76C17.0132 76 0 58.9868 0 38Z" fill="#00B74F" fill-opacity="0.08"/>
<path d="M49.4928 35.4545C49.4928 35.7921 49.3618 36.1158 49.1285 36.3545C48.8952 36.5932 48.5787 36.7273 48.2488 36.7273H38.201C37.871 36.7273 37.5546 36.5932 37.3213 36.3545C37.088 36.1158 36.9569 35.7921 36.9569 35.4545C36.9569 35.117 37.088 34.7933 37.3213 34.5546C37.5546 34.3159 37.871 34.1818 38.201 34.1818H48.2488C48.5787 34.1818 48.8952 34.3159 49.1285 34.5546C49.3618 34.7933 49.4928 35.117 49.4928 35.4545ZM48.2488 39.2727H38.201C37.871 39.2727 37.5546 39.4068 37.3213 39.6455C37.088 39.8842 36.9569 40.2079 36.9569 40.5455C36.9569 40.883 37.088 41.2067 37.3213 41.4454C37.5546 41.6841 37.871 41.8182 38.201 41.8182H48.2488C48.5787 41.8182 48.8952 41.6841 49.1285 41.4454C49.3618 41.2067 49.4928 40.883 49.4928 40.5455C49.4928 40.2079 49.3618 39.8842 49.1285 39.6455C48.8952 39.4068 48.5787 39.2727 48.2488 39.2727ZM56 26.5455V49.4545C56 50.1296 55.7379 50.7771 55.2713 51.2545C54.8047 51.7318 54.1718 52 53.512 52H18.488C17.8282 52 17.1953 51.7318 16.7287 51.2545C16.2621 50.7771 16 50.1296 16 49.4545V26.5455C16 25.8704 16.2621 25.2229 16.7287 24.7455C17.1953 24.2682 17.8282 24 18.488 24H53.512C54.1718 24 54.8047 24.2682 55.2713 24.7455C55.7379 25.2229 56 25.8704 56 26.5455ZM53.512 49.4545V26.5455H18.488V49.4545H53.512ZM34.1414 44.0455C34.2239 44.3725 34.176 44.7196 34.0083 45.0105C33.8406 45.3014 33.5669 45.5122 33.2473 45.5966C32.9276 45.681 32.5883 45.632 32.304 45.4605C32.0197 45.2889 31.8136 45.0088 31.7311 44.6818C31.3221 43.0495 29.7002 41.8182 27.9602 41.8182C26.2201 41.8182 24.5998 43.0495 24.1892 44.6818C24.1068 45.0088 23.9007 45.2889 23.6163 45.4605C23.332 45.632 22.9927 45.681 22.6731 45.5966C22.3535 45.5122 22.0797 45.3014 21.912 45.0105C21.7443 44.7196 21.6965 44.3725 21.7789 44.0455C22.1826 42.5082 23.1369 41.1827 24.452 40.3323C23.7532 39.6215 23.2763 38.7145 23.0819 37.7261C22.8875 36.7377 22.9843 35.7126 23.36 34.7806C23.7358 33.8485 24.3736 33.0517 25.1925 32.4909C26.0115 31.9302 26.9747 31.6309 27.9602 31.6309C28.9456 31.6309 29.9089 31.9302 30.7278 32.4909C31.5468 33.0517 32.1845 33.8485 32.5603 34.7806C32.936 35.7126 33.0329 36.7377 32.8385 37.7261C32.644 38.7145 32.1672 39.6215 31.4683 40.3323C32.7849 41.1815 33.74 42.5074 34.1429 44.0455H34.1414ZM27.9617 39.2727C28.4538 39.2727 28.9348 39.1234 29.344 38.8437C29.7532 38.564 30.0721 38.1665 30.2604 37.7014C30.4487 37.2363 30.498 36.7244 30.402 36.2307C30.306 35.7369 30.069 35.2834 29.721 34.9274C29.3731 34.5714 28.9297 34.3289 28.4471 34.2307C27.9645 34.1325 27.4642 34.1829 27.0096 34.3756C26.555 34.5682 26.1664 34.8945 25.893 35.3131C25.6196 35.7317 25.4737 36.2238 25.4737 36.7273C25.4737 37.4024 25.7358 38.0498 26.2024 38.5272C26.669 39.0045 27.3019 39.2727 27.9617 39.2727Z" fill="#00B74F"/>
<circle cx="54" cy="50" r="7" fill="#00B74F"/>
<path d="M57.2728 47.9286L53.8167 52.4364C53.7937 52.4657 53.7655 52.49 53.7335 52.508C53.7016 52.5259 53.6666 52.5371 53.6305 52.5408C53.5944 52.5446 53.5579 52.5409 53.5232 52.53C53.4885 52.5191 53.4562 52.5011 53.4281 52.4771L51.313 50.6711C51.2563 50.6227 51.2204 50.5528 51.2131 50.4767C51.2058 50.4006 51.2277 50.3245 51.274 50.2653C51.3204 50.2061 51.3874 50.1686 51.4602 50.1609C51.5331 50.1533 51.6059 50.1762 51.6626 50.2246L53.5639 51.8484L56.8453 47.5636C56.8916 47.5044 56.9586 47.4668 57.0315 47.4592C57.1043 47.4515 57.1771 47.4744 57.2338 47.5228C57.2905 47.5713 57.3265 47.6412 57.3338 47.7173C57.3411 47.7934 57.3192 47.8694 57.2728 47.9286Z" fill="#EBF9F1"/>
<path fill-rule="evenodd" clip-rule="evenodd" d="M56.9877 47.0037C57.1762 46.984 57.3645 47.0432 57.5112 47.1685C57.6579 47.2937 57.7509 47.4747 57.7699 47.6716C57.7888 47.8685 57.732 48.0652 57.6121 48.2184L54.1561 52.7259C54.0968 52.8017 54.0236 52.8648 53.9409 52.9112C53.8583 52.9576 53.7676 52.9865 53.6742 52.9963C53.5809 53.0061 53.4865 52.9965 53.3967 52.9682C53.3069 52.9399 53.2233 52.8935 53.1507 52.8315L51.0357 51.0255C50.889 50.9003 50.7959 50.7193 50.777 50.5224C50.7581 50.3255 50.8148 50.1288 50.9347 49.9756C51.0547 49.8224 51.2279 49.7253 51.4165 49.7055C51.605 49.6857 51.7933 49.745 51.94 49.8702L53.502 51.2043L56.506 47.2739C56.6259 47.1207 56.7992 47.0235 56.9877 47.0037Z" fill="#EBF9F1"/>
</svg>
