<svg width="128" height="128" viewBox="0 0 128 128" fill="none" xmlns="http://www.w3.org/2000/svg">
<rect width="128" height="128" rx="64" fill="#E2F1E9"/>
<path d="M90.145 40H29.0881C27.7386 40 26.4491 40.5268 25.5031 41.4645C24.5571 42.4021 24.0321 43.6739 24.0437 45L24.3936 85C24.4052 86.3261 24.9524 87.5979 25.9148 88.5355C26.8772 89.4732 28.176 90 29.5254 90H90.5824C91.9318 90 93.2214 89.4732 94.1674 88.5355C95.1134 87.5979 95.6383 86.3261 95.6267 85L95.2768 45C95.2652 43.6739 94.718 42.4021 93.7556 41.4645C92.7932 40.5268 91.4945 40 90.145 40ZM90.1888 45L90.2544 52.5H29.1974L29.1318 45H90.1888ZM90.5386 85H29.4817L29.2411 57.5H90.2981L90.5386 85Z" fill="#00B74F"/>
<path d="M45.4671 79.2678C45.9401 78.7989 46.2026 78.163 46.1968 77.5C46.191 76.837 45.9174 76.2011 45.4362 75.7322C44.955 75.2634 44.3056 75 43.6309 75H38.5428C37.8681 75 37.2233 75.2634 36.7503 75.7322C36.2773 76.2011 36.0149 76.837 36.0207 77.5C36.0265 78.163 36.3 78.7989 36.7812 79.2678C37.2624 79.7366 37.9118 80 38.5866 80H43.6746C44.3494 80 44.9941 79.7366 45.4671 79.2678Z" fill="#00B74F"/>
<circle cx="92.5" cy="83.5" r="12.5" fill="#00B74F"/>
<path d="M91.7305 87.7072L97.8277 80.4321" stroke="#F8E6E4" stroke-width="2" stroke-linecap="round"/>
<path d="M87.9023 83.6941L91.6119 87.5926" stroke="#F8E6E4" stroke-width="2" stroke-linecap="round"/>
</svg>
