<svg width="181" height="34" viewBox="0 0 181 34" fill="none" xmlns="http://www.w3.org/2000/svg">
<path d="M37.9405 0.0576172L17.3554 17.0288H0.201172L13.9246 5.70903V0.0576172H37.9405Z" fill="#6563D4"/>
<path d="M20.7862 22.6802V17.0288H44.8022L24.2171 34H7.06285L20.7862 22.6802Z" fill="#6563D4"/>
<path d="M139.355 6.87929L140.315 0.158691H148.395L139.372 6.87929H139.355Z" fill="#171717"/>
<path d="M135.581 33.4732L139.252 7.67693H146.474L142.803 33.4732H135.581Z" fill="#171717"/>
<path d="M124.636 33.4562H131.927L131.91 33.4222L134.38 15.9928C134.586 14.686 134.637 13.3793 134.586 12.0894C134.534 10.7996 134.277 9.62862 133.831 8.55943C133.385 7.49025 132.63 6.65866 131.584 6.03073C130.538 5.40279 129.114 5.09731 127.347 5.09731C125.683 5.09731 124.088 5.33491 122.578 5.79313C121.051 6.25135 119.679 6.89626 118.444 7.71088C117.192 8.52549 116.128 9.54377 115.236 10.7487L115.974 5.53856H109.403L105.441 33.4392H112.663L114.979 17.1808C115.579 16.0607 116.317 15.0594 117.226 14.2108C118.135 13.3623 119.113 12.6834 120.176 12.1913C121.24 11.6991 122.269 11.4615 123.247 11.4615C124.688 11.4615 125.734 11.9876 126.369 13.0059C127.004 14.0242 127.158 15.6534 126.849 17.8766L124.636 33.4562Z" fill="#171717"/>
<path d="M61.9205 33.9993C59.4846 33.9993 57.2202 33.6089 55.1103 32.8113C53.0003 32.0136 51.2677 30.8596 49.9297 29.3152L53.2576 24.6312C54.7329 25.9889 56.2424 26.9902 57.7692 27.6351C59.3131 28.28 60.8569 28.6024 62.418 28.6024C63.8246 28.6024 64.9911 28.3648 65.9174 27.8727C66.8438 27.3805 67.3584 26.6677 67.4956 25.7004C67.5986 24.9876 67.4442 24.4615 67.0153 24.0881C66.6036 23.7147 65.9689 23.3923 65.1112 23.1377C64.2535 22.8662 63.2242 22.5607 62.0063 22.2043C59.9992 21.5594 58.3353 20.9145 57.0315 20.2696C55.7278 19.6247 54.7843 18.7931 54.2011 17.8257C53.6178 16.8584 53.4292 15.6025 53.6522 14.0921C53.9095 12.2592 54.6128 10.6639 55.7621 9.34012C56.9115 8.01637 58.4039 6.98112 60.2222 6.23439C62.0406 5.48766 64.1162 5.11429 66.4321 5.11429C68.4563 5.11429 70.3432 5.43674 72.0587 6.04771C73.7741 6.67564 75.2837 7.69391 76.5702 9.08555L72.9164 13.7017C71.6641 12.5477 70.429 11.7161 69.1939 11.2069C67.9588 10.6808 66.6722 10.4263 65.3342 10.4263C64.5794 10.4263 63.8418 10.5111 63.1556 10.6978C62.4694 10.8845 61.869 11.173 61.4059 11.5633C60.9256 11.9707 60.6339 12.5477 60.531 13.2774C60.4452 13.9054 60.5653 14.4315 60.8912 14.8048C61.2172 15.1952 61.749 15.5176 62.4866 15.8061C63.2242 16.0947 64.1334 16.4001 65.197 16.7565C67.3927 17.4014 69.2111 18.0294 70.6863 18.6913C72.1444 19.3531 73.2251 20.1677 73.8942 21.1521C74.5632 22.1364 74.7862 23.4771 74.546 25.1742C74.1515 27.9236 72.8135 30.0789 70.5319 31.6233C68.2504 33.1847 65.3685 33.9484 61.8862 33.9484L61.9205 33.9993Z" fill="#171717"/>
<path fill-rule="evenodd" clip-rule="evenodd" d="M88.7669 33.9992C86.4854 33.9992 84.4783 33.6259 82.7286 32.8621C80.9789 32.0984 79.5551 31.0462 78.44 29.7225C77.325 28.3987 76.5359 26.8713 76.0899 25.1742C75.6439 23.4771 75.5581 21.6442 75.8326 19.6925C76.21 17.062 77.1535 14.6521 78.6802 12.4288C80.2069 10.2056 82.1797 8.44059 84.5984 7.11684C87.0172 5.79308 89.779 5.13121 92.9011 5.13121C96.0231 5.13121 98.5277 5.79308 100.552 7.13381C102.576 8.47453 104.034 10.2056 104.909 12.3779C105.801 14.5502 106.058 16.9092 105.698 19.4549C105.63 19.9131 105.544 20.3544 105.458 20.7617C105.418 20.919 105.384 21.0661 105.351 21.2042C105.299 21.4235 105.253 21.6198 105.201 21.7969H83.2432C83.1403 23.2734 83.3633 24.5293 83.9294 25.5476C84.4955 26.5658 85.2846 27.3805 86.3138 27.9405C87.3431 28.5006 88.4753 28.7721 89.6932 28.7721C91.1856 28.7721 92.6094 28.4157 93.9989 27.7199C95.3884 27.0241 96.4005 26.0737 97.0352 24.9027L102.988 26.6168C102.13 28.0593 100.998 29.3152 99.5569 30.4353C98.1331 31.5384 96.5035 32.4209 94.6851 33.0488C92.8496 33.6768 90.8769 33.9823 88.7326 33.9823L88.7669 33.9992ZM98.5791 17.2826C98.6306 15.874 98.3904 14.669 97.8758 13.6338C97.3612 12.5985 96.5892 11.8009 95.5771 11.2239C94.565 10.6468 93.3985 10.3583 92.0605 10.3583C90.7225 10.3583 89.5217 10.6468 88.3723 11.2239C87.223 11.8009 86.2452 12.5985 85.4218 13.6338C84.5984 14.669 84.0152 15.8909 83.6721 17.2826H98.5791Z" fill="#171717"/>
<path fill-rule="evenodd" clip-rule="evenodd" d="M149.613 12.2592C148.224 14.4484 147.331 16.8753 146.954 19.5398V19.5228C146.68 21.5424 146.731 23.4432 147.16 25.1912C147.572 26.9562 148.292 28.5006 149.321 29.8244C150.351 31.1651 151.637 32.1833 153.181 32.9131C154.725 33.6429 156.475 33.9993 158.43 33.9993C160.386 33.9993 162.324 33.541 164.246 32.6076C166.167 31.6742 167.779 30.3165 169.083 28.5685L168.946 30.3505C168.912 31.3857 169.272 32.2343 170.027 32.8792C170.781 33.5241 171.828 33.8296 173.131 33.7956C173.886 33.8296 174.933 33.7277 176.271 33.4732L177.111 27.6181C176.511 27.5502 176.099 27.3466 175.893 27.0241C175.687 26.7017 175.636 26.1586 175.739 25.4118L179.324 0.158691H171.982L170.507 10.562C169.821 8.98372 168.706 7.67694 167.145 6.65866C165.584 5.64039 163.765 5.13125 161.707 5.13125C159.254 5.13125 156.955 5.77616 154.862 7.049C152.769 8.32184 151.02 10.0699 149.613 12.2592ZM169.701 16.6377L168.774 23.1716H168.757C168.448 23.8844 167.985 24.5124 167.402 25.0724C166.819 25.6325 166.167 26.1246 165.481 26.5489C164.777 26.9732 164.074 27.3126 163.354 27.5332C162.633 27.7539 161.913 27.8727 161.192 27.8727C160.06 27.8727 159.048 27.669 158.121 27.2617C157.212 26.8544 156.458 26.2774 155.874 25.5137C155.291 24.7669 154.879 23.8844 154.622 22.8831C154.365 21.8818 154.313 20.7617 154.485 19.6416C154.656 18.5215 154.982 17.4523 155.463 16.451C155.96 15.4497 156.595 14.5672 157.367 13.7866C158.139 13.0059 159.014 12.3949 159.991 11.9367C160.952 11.4785 162.016 11.2579 163.131 11.2579C164.108 11.2579 165.052 11.4955 165.961 11.9706C166.87 12.4289 167.659 13.0738 168.345 13.8884C169.032 14.703 169.478 15.6195 169.701 16.6377Z" fill="#171717"/>
</svg>
