<svg width="126" height="24" viewBox="0 0 126 24" fill="none" xmlns="http://www.w3.org/2000/svg">
<path d="M26.4175 0L12.008 12H0L9.60638 3.996V0H26.4175Z" fill="#6563D4"/>
<path d="M14.4095 15.996V12H31.2207L16.8111 24H4.80317L14.4095 15.996Z" fill="#6563D4"/>
<path d="M97.4081 4.82402L98.0806 0.0720215H103.736L97.4201 4.82402H97.4081Z" fill="#171717"/>
<path d="M94.7664 23.628L97.3361 5.38802H102.391L99.8217 23.628H94.7664Z" fill="#171717"/>
<path d="M87.1053 23.616H92.2087L92.1967 23.592L93.9258 11.268C94.0699 10.344 94.1059 9.42001 94.0699 8.50801C94.0339 7.59601 93.8538 6.76802 93.5415 6.01202C93.2293 5.25602 92.701 4.66802 91.9685 4.22402C91.236 3.78002 90.2394 3.56402 89.0025 3.56402C87.8378 3.56402 86.721 3.73202 85.6643 4.05602C84.5956 4.38002 83.635 4.83602 82.7704 5.41202C81.8938 5.98802 81.1493 6.70802 80.5249 7.56001L81.0412 3.87602H76.4422L73.6684 23.604H78.7237L80.3448 12.108C80.7651 11.316 81.2814 10.608 81.9178 10.008C82.5543 9.40801 83.2387 8.92801 83.9832 8.58001C84.7277 8.23201 85.4482 8.06401 86.1326 8.06401C87.1413 8.06401 87.8738 8.43602 88.3181 9.15601C88.7624 9.87601 88.8704 11.028 88.6543 12.6L87.1053 23.616Z" fill="#171717"/>
<path d="M43.2041 24C41.499 24 39.9139 23.724 38.437 23.16C36.96 22.596 35.7472 21.78 34.8105 20.688L37.1401 17.376C38.1728 18.336 39.2295 19.044 40.2982 19.5C41.3789 19.956 42.4596 20.184 43.5524 20.184C44.537 20.184 45.3535 20.016 46.002 19.668C46.6504 19.32 47.0106 18.816 47.1067 18.132C47.1788 17.628 47.0707 17.256 46.7705 16.992C46.4823 16.728 46.038 16.5 45.4376 16.32C44.8372 16.128 44.1167 15.912 43.2642 15.66C41.8592 15.204 40.6945 14.748 39.7818 14.292C38.8692 13.836 38.2088 13.248 37.8005 12.564C37.3923 11.88 37.2602 10.992 37.4163 9.92402C37.5964 8.62802 38.0887 7.50002 38.8933 6.56402C39.6978 5.62802 40.7425 4.89602 42.0153 4.36802C43.2882 3.84002 44.7411 3.57602 46.3622 3.57602C47.7792 3.57602 49.1 3.80402 50.3008 4.23602C51.5016 4.68002 52.5583 5.40002 53.4589 6.38402L50.9012 9.64802C50.0246 8.83202 49.1601 8.24402 48.2955 7.88402C47.4309 7.51202 46.5303 7.33202 45.5937 7.33202C45.0654 7.33202 44.549 7.39202 44.0687 7.52402C43.5884 7.65602 43.1681 7.86002 42.8439 8.13602C42.5077 8.42402 42.3035 8.83202 42.2315 9.34802C42.1714 9.79202 42.2555 10.164 42.4836 10.428C42.7118 10.704 43.084 10.932 43.6004 11.136C44.1167 11.34 44.7531 11.556 45.4976 11.808C47.0347 12.264 48.3075 12.708 49.3402 13.176C50.3609 13.644 51.1174 14.22 51.5857 14.916C52.054 15.612 52.2101 16.56 52.042 17.76C51.7658 19.704 50.8292 21.228 49.2321 22.32C47.6351 23.424 45.6177 23.964 43.1801 23.964L43.2041 24Z" fill="#171717"/>
<path fill-rule="evenodd" clip-rule="evenodd" d="M61.9966 24C60.3995 24 58.9946 23.736 57.7698 23.196C56.545 22.656 55.5483 21.912 54.7678 20.976C53.9873 20.04 53.4349 18.96 53.1227 17.76C52.8105 16.56 52.7505 15.264 52.9426 13.884C53.2068 12.024 53.8672 10.32 54.9359 8.74798C56.0046 7.17598 57.3855 5.92798 59.0787 4.99198C60.7718 4.05599 62.7051 3.58799 64.8905 3.58799C67.076 3.58799 68.8291 4.05599 70.2461 5.00398C71.663 5.95198 72.6837 7.17598 73.2961 8.71198C73.9205 10.248 74.1006 11.916 73.8485 13.716C73.8004 14.04 73.7404 14.352 73.6803 14.64C73.6525 14.7512 73.6283 14.8552 73.6055 14.9528C73.5694 15.108 73.5371 15.2468 73.5002 15.372H58.13C58.058 16.416 58.2141 17.304 58.6103 18.024C59.0066 18.744 59.559 19.32 60.2795 19.716C60.9999 20.112 61.7924 20.304 62.645 20.304C63.6897 20.304 64.6864 20.052 65.659 19.56C66.6317 19.068 67.3401 18.396 67.7844 17.568L71.9512 18.78C71.3508 19.8 70.5583 20.688 69.5496 21.48C68.5529 22.26 67.4122 22.884 66.1393 23.328C64.8545 23.772 63.4736 23.988 61.9726 23.988L61.9966 24ZM68.8651 12.18C68.9012 11.184 68.7331 10.332 68.3728 9.59998C68.0126 8.86798 67.4722 8.30398 66.7637 7.89598C66.0553 7.48798 65.2387 7.28398 64.3021 7.28398C63.3655 7.28398 62.5249 7.48798 61.7204 7.89598C60.9159 8.30398 60.2314 8.86798 59.655 9.59998C59.0787 10.332 58.6704 11.196 58.4302 12.18H68.8651Z" fill="#171717"/>
<path fill-rule="evenodd" clip-rule="evenodd" d="M104.589 8.62801C103.616 10.176 102.992 11.892 102.728 13.776V13.764C102.535 15.192 102.572 16.536 102.872 17.772C103.16 19.02 103.664 20.112 104.385 21.048C105.105 21.996 106.006 22.716 107.087 23.232C108.167 23.748 109.392 24 110.761 24C112.13 24 113.487 23.676 114.832 23.016C116.177 22.356 117.305 21.396 118.218 20.16L118.122 21.42C118.098 22.152 118.35 22.752 118.878 23.208C119.407 23.664 120.139 23.88 121.052 23.856C121.58 23.88 122.313 23.808 123.249 23.628L123.838 19.488C123.417 19.44 123.129 19.296 122.985 19.068C122.841 18.84 122.805 18.456 122.877 17.928L125.387 0.0720215H120.247L119.215 7.42801C118.734 6.31202 117.954 5.38802 116.861 4.66802C115.768 3.94802 114.495 3.58802 113.054 3.58802C111.337 3.58802 109.728 4.04402 108.263 4.94402C106.798 5.84402 105.574 7.08002 104.589 8.62801ZM118.65 11.724L118.002 16.344H117.99C117.774 16.848 117.449 17.292 117.041 17.688C116.633 18.084 116.177 18.432 115.696 18.732C115.204 19.032 114.712 19.272 114.207 19.428C113.703 19.584 113.199 19.668 112.694 19.668C111.902 19.668 111.193 19.524 110.545 19.236C109.908 18.948 109.38 18.54 108.972 18C108.563 17.472 108.275 16.848 108.095 16.14C107.915 15.432 107.879 14.64 107.999 13.848C108.119 13.056 108.347 12.3 108.684 11.592C109.032 10.884 109.476 10.26 110.016 9.70801C110.557 9.15602 111.169 8.72402 111.854 8.40001C112.526 8.07602 113.271 7.92002 114.051 7.92002C114.736 7.92002 115.396 8.08802 116.032 8.42402C116.669 8.74802 117.221 9.20401 117.702 9.78001C118.182 10.356 118.494 11.004 118.65 11.724Z" fill="#171717"/>
</svg>
